<svg width="122" height="84" viewBox="0 0 122 84" fill="none" xmlns="http://www.w3.org/2000/svg">
<path d="M75.2108 12.1715C99.256 16.8471 105.585 31.1492 104.016 51.4414C99.563 74.3416 81.5651 80.7444 62.5939 77.0554C41.6021 72.9734 32.1983 54.1125 35.3154 38.0823C38.4325 22.0522 56.509 8.53483 75.2108 12.1715Z" fill="#85BF4B"/>
<path d="M40.3621 26.3886C42.8959 29.654 43.8183 31.0216 42.3339 38.6551C40.7012 47.0518 38.8776 48.2816 35.379 49.9779C33.9901 46.9351 34.1174 42.2066 35.0822 37.2449C35.8986 33.0466 38.0084 28.3075 40.3621 26.3886Z" fill="#5F7E40"/>
<path d="M31.6597 28.3645C33.1045 30.7121 36.2212 36.1403 36.9163 37.9976L37.8844 33.0193C36.881 31.3891 35.4354 30.132 33.509 27.002C31.5826 23.8719 30.2197 19.4736 29.9404 16.836L25.4783 19.4127C26.9368 21.4185 30.2149 26.017 31.6597 28.3645Z" fill="#5F7E40"/>
<path d="M34.3644 37.6611C38.4661 35.5199 42.2705 31.1167 42.2705 31.1167L42.1547 35.5024C42.1547 35.5024 40.1838 38.058 36.0822 40.1992C31.463 42.6107 29.2774 41.0802 25.1758 43.2214C21.0741 45.3627 22.3612 47.0824 18.9654 48.6262C15.5696 50.17 15.2768 48.6436 9.61713 51.2167C6.22131 52.7606 4.25437 56.0516 2.97186 55.0676C0.10365 52.8668 5.77611 50.0246 9.4573 48.2468C12.7111 46.6754 14.704 47.7976 17.958 46.2262C21.212 44.6547 20.2044 42.2547 25.0162 40.2516C29.1177 38.5441 30.146 39.8634 34.3644 37.6611Z" fill="#5F7E40"/>
<path d="M71.7597 51.8792C50.7343 51.5268 30.9264 58.1923 23.6506 61.5691L32.5597 66.8545L25.8779 77.8657C36.4203 75.3698 57.0597 69.4972 73.987 69.4972C90.9143 69.4972 105.317 75.3698 114.969 77.8657L110.069 66.8545L121.651 61.5691C113.781 58.4859 92.7852 52.2315 71.7597 51.8792Z" fill="#2A4B0B"/>
<path d="M46.6034 61.3857L46.9229 63.2059L50.575 62.5649L50.8924 64.3733L47.2402 65.0142L47.738 67.8509L45.3978 68.2616L43.9458 59.988L50.4347 58.8493L50.752 60.6576L46.6034 61.3857Z" fill="#E5E5E5"/>
<path d="M59.9093 63.1302L58.6206 63.2675L58.857 65.4869L56.4944 65.7385L55.6047 57.3858L59.4231 56.9791C60.1789 56.8986 60.8487 56.956 61.4327 57.1512C62.0158 57.3385 62.4835 57.6507 62.8358 58.0879C63.1872 58.5171 63.3964 59.0459 63.4633 59.6744C63.5277 60.2789 63.4409 60.8232 63.2028 61.3071C62.9718 61.7823 62.6074 62.1751 62.1094 62.4856L64.1908 64.9188L61.6612 65.1882L59.9093 63.1302ZM61.0768 59.9285C61.0353 59.5387 60.8798 59.2496 60.6103 59.0611C60.3408 58.8725 59.9635 58.8041 59.4782 58.8558L58.1656 58.9956L58.4262 61.4418L59.7387 61.302C60.224 61.2503 60.5789 61.1079 60.8035 60.8748C61.0272 60.6338 61.1183 60.3183 61.0768 59.9285Z" fill="#E5E5E5"/>
<path d="M75.6713 63.1352V64.9712H68.9273V56.5712H75.5153V58.4072H71.2793V59.8232H75.0113V61.5992H71.2793V63.1352H75.6713Z" fill="#E5E5E5"/>
<path d="M83.3733 65.7637C82.6992 65.6744 82.056 65.5044 81.4436 65.2538C80.8312 65.0033 80.3451 64.7129 79.9853 64.3828L80.9887 62.7484C81.3288 63.0436 81.7348 63.2992 82.2065 63.515C82.6783 63.7308 83.1521 63.8702 83.6279 63.9332C84.532 64.053 85.014 63.8869 85.0739 63.4348C85.1054 63.1969 84.9977 63.0051 84.7507 62.8594C84.5126 62.7068 84.1165 62.5293 83.5623 62.3267C82.9537 62.1089 82.4491 61.8968 82.0488 61.6905C81.6494 61.4762 81.3217 61.1785 81.0655 60.7976C80.8093 60.4167 80.7196 59.9367 80.7962 59.3578C80.8635 58.8502 81.0627 58.4126 81.3938 58.0449C81.726 57.6692 82.1815 57.3987 82.7602 57.2333C83.3469 57.0689 84.0407 57.0398 84.8417 57.1459C85.389 57.2184 85.9198 57.3532 86.4344 57.5505C86.95 57.7399 87.3943 57.9803 87.7672 58.2718L86.8099 59.9244C86.0736 59.3911 85.3327 59.075 84.5872 58.9763C84.1193 58.9143 83.7688 58.9405 83.5357 59.0549C83.3038 59.1614 83.1731 59.3256 83.1436 59.5477C83.1142 59.7697 83.2191 59.9531 83.4581 60.0977C83.6972 60.2424 84.0904 60.4115 84.6377 60.605C85.2543 60.8239 85.7583 61.04 86.1497 61.2532C86.5501 61.4596 86.8783 61.7532 87.1345 62.1342C87.3997 62.5082 87.494 62.9847 87.4173 63.5637C87.3511 64.0633 87.1524 64.497 86.8213 64.8647C86.4901 65.2324 86.0307 65.5024 85.443 65.6747C84.8563 65.8391 84.1664 65.8687 83.3733 65.7637Z" fill="#E5E5E5"/>
<path d="M100.859 60.4991L99.2639 68.7461L96.9311 68.2948L97.5534 65.0785L94.3724 64.463L93.7501 67.6794L91.4174 67.2281L93.0129 58.981L95.3457 59.4323L94.7462 62.5309L97.9272 63.1463L98.5267 60.0477L100.859 60.4991Z" fill="#E5E5E5"/>
</svg>
