<svg width="129" height="86" viewBox="0 0 129 86" fill="none" xmlns="http://www.w3.org/2000/svg">
<path d="M82.2108 14.1715C106.256 18.8471 112.585 33.1492 111.016 53.4414C106.563 76.3416 88.5651 82.7444 69.5939 79.0554C48.6021 74.9734 39.1983 56.1125 42.3154 40.0823C45.4325 24.0522 63.509 10.5348 82.2108 14.1715Z" fill="#85BF4B"/>
<path d="M47.3622 28.3885C49.896 31.6539 50.8184 33.0216 49.334 40.655C47.7013 49.0518 45.8777 50.2816 42.3791 51.9779C40.9902 48.9351 41.1175 44.2066 42.0823 39.2449C42.8987 35.0465 45.0085 30.3075 47.3622 28.3885Z" fill="#5F7E40"/>
<path d="M38.6598 30.3646C40.1046 32.7121 43.2213 38.1403 43.9164 39.9976L44.8845 35.0193C43.8811 33.3891 42.4355 32.1321 40.5091 29.002C38.5827 25.8719 37.2198 21.4736 36.9405 18.8361L32.4784 21.4128C33.9369 23.4185 37.215 28.017 38.6598 30.3646Z" fill="#5F7E40"/>
<path d="M41.3645 39.6612C45.4662 37.5199 49.2706 33.1167 49.2706 33.1167L49.1548 37.5025C49.1548 37.5025 47.184 40.058 43.0823 42.1993C38.4631 44.6107 36.2775 43.0802 32.1759 45.2214C28.0743 47.3627 29.3613 49.0824 25.9655 50.6262C22.5698 52.17 22.2769 50.6436 16.6173 53.2167C13.2214 54.7606 11.2545 58.0516 9.97198 57.0676C7.10377 54.8669 12.7762 52.0246 16.4574 50.2468C19.7112 48.6754 21.7042 49.7976 24.9581 48.2262C28.2121 46.6547 27.2045 44.2547 32.0163 42.2516C36.1178 40.5442 37.1461 41.8634 41.3645 39.6612Z" fill="#5F7E40"/>
<path d="M78.7597 53.8792C57.7343 53.5268 37.9264 60.1923 30.6506 63.5691L39.5597 68.8545L32.8779 79.8657C43.4203 77.3698 64.0597 71.4972 80.987 71.4972C97.9143 71.4972 112.317 77.3698 121.969 79.8657L117.069 68.8545L128.651 63.5691C120.781 60.4859 99.7852 54.2315 78.7597 53.8792Z" fill="#2F3033"/>
<path d="M53.3272 63.5195L53.8399 65.2949L57.4023 64.2661L57.9118 66.03L54.3493 67.0588L55.1484 69.8257L52.8657 70.485L50.5351 62.4148L56.8644 60.5869L57.3738 62.3508L53.3272 63.5195Z" fill="white"/>
<path d="M66.9093 65.1302L65.6206 65.2675L65.857 67.4869L63.4944 67.7385L62.6047 59.3858L66.4231 58.9791C67.1789 58.8986 67.8487 58.956 68.4327 59.1512C69.0158 59.3385 69.4835 59.6507 69.8358 60.0879C70.1872 60.5171 70.3964 61.0459 70.4633 61.6744C70.5277 62.2789 70.4409 62.8232 70.2028 63.3071C69.9718 63.7823 69.6074 64.1751 69.1094 64.4856L71.1908 66.9188L68.6612 67.1882L66.9093 65.1302ZM68.0768 61.9285C68.0353 61.5387 67.8798 61.2496 67.6103 61.0611C67.3408 60.8725 66.9635 60.8041 66.4782 60.8558L65.1656 60.9956L65.4262 63.4418L66.7387 63.302C67.224 63.2503 67.5789 63.1079 67.8035 62.8748C68.0272 62.6338 68.1183 62.3183 68.0768 61.9285Z" fill="white"/>
<path d="M82.6712 65.1352V66.9712H75.9272V58.5712H82.5152V60.4072H78.2792V61.8232H82.0112V63.5992H78.2792V65.1352H82.6712Z" fill="white"/>
<path d="M90.3732 67.7637C89.6991 67.6744 89.0559 67.5044 88.4435 67.2538C87.8311 67.0033 87.345 66.7129 86.9852 66.3828L87.9885 64.7484C88.3287 65.0436 88.7347 65.2992 89.2064 65.515C89.6782 65.7308 90.152 65.8702 90.6278 65.9332C91.5319 66.053 92.0139 65.8869 92.0738 65.4348C92.1053 65.1969 91.9975 65.0051 91.7505 64.8594C91.5125 64.7068 91.1164 64.5293 90.5622 64.3267C89.9535 64.1089 89.449 63.8968 89.0486 63.6905C88.6493 63.4762 88.3216 63.1785 88.0654 62.7976C87.8092 62.4167 87.7194 61.9367 87.7961 61.3578C87.8634 60.8502 88.0626 60.4126 88.3937 60.0449C88.7259 59.6692 89.1814 59.3987 89.7601 59.2333C90.3468 59.0689 91.0406 59.0398 91.8416 59.1459C92.3888 59.2184 92.9197 59.3532 93.4343 59.5505C93.9499 59.7399 94.3942 59.9803 94.7671 60.2718L93.8098 61.9244C93.0735 61.3911 92.3325 61.075 91.587 60.9763C91.1191 60.9143 90.7687 60.9405 90.5356 61.0549C90.3036 61.1614 90.1729 61.3256 90.1435 61.5477C90.1141 61.7697 90.2189 61.9531 90.458 62.0977C90.6971 62.2424 91.0903 62.4115 91.6376 62.605C92.2542 62.8239 92.7582 63.04 93.1496 63.2532C93.5499 63.4596 93.8782 63.7532 94.1344 64.1342C94.3996 64.5082 94.4938 64.9847 94.4171 65.5637C94.351 66.0633 94.1523 66.497 93.8211 66.8647C93.49 67.2324 93.0306 67.5024 92.4428 67.6747C91.8562 67.8391 91.1663 67.8687 90.3732 67.7637Z" fill="white"/>
<path d="M107.859 62.4991L106.264 70.7461L103.931 70.2948L104.553 67.0785L101.372 66.463L100.75 69.6794L98.4174 69.2281L100.013 60.981L102.346 61.4323L101.746 64.5309L104.927 65.1463L105.527 62.0477L107.859 62.4991Z" fill="white"/>
</svg>
