<svg width="99" height="104" viewBox="0 0 99 104" fill="none" xmlns="http://www.w3.org/2000/svg">
<path d="M61.0655 32.6278H11.424C10.7616 32.6278 10.1388 32.9537 9.78287 33.5124C6.95459 37.9513 5.07851 43.0421 4.37516 48.1256M61.0655 32.6278H87.3478C88.0328 32.6278 88.6735 32.9766 89.0241 33.5651C90.7381 36.4417 92.0373 39.4496 92.949 42.5292M61.0655 32.6278L72.0827 18.3139L82.4994 4.78013C82.878 4.28822 83.4636 4 84.0843 4H97M4.37516 48.1256C1.05232 72.1416 20.1171 100 49.0855 100C80.4948 100 100.691 68.6802 92.949 42.5292M4.37516 48.1256C10.365 49.2018 18.9221 50.7085 24.4842 50.7085C38.3893 50.7085 37.7423 46.6188 52.9363 46.6188C68.1303 46.6188 72.7273 58.5455 92.949 42.5292" stroke="#4BBF6B" stroke-width="7"/>
</svg>
